<?xml version="1.0" encoding="iso-8859-1"?>
<!-- Generator: Adobe Illustrator 19.0.0, SVG Export Plug-In . SVG Version: 6.00 Build 0)  -->
<svg version="1.1" id="Layer_1" xmlns="http://www.w3.org/2000/svg" xmlns:xlink="http://www.w3.org/1999/xlink" x="0px" y="0px"
	 viewBox="0 0 512.004 512.004" style="enable-background:new 0 0 512.004 512.004;" xml:space="preserve">
<g>
	<path style="fill:#26B99A;" d="M344.279,370.761l-71.521-36.599c-10.319-5.641-16.755-16.472-16.755-28.239v-32.265
		c0,0,23.111-27.639,31.929-66.057c7.309-4.732,12.209-12.915,12.209-22.219v-35.31c0-7.768-3.452-14.716-8.828-19.571v-51.05
		c0,0,10.487-79.448-97.103-79.448c-107.582,0-97.103,79.448-97.103,79.448v51.05c-5.376,4.855-8.828,11.802-8.828,19.571v35.31
		c0,9.304,4.899,17.487,12.209,22.219c8.819,38.418,31.929,66.057,31.929,66.057v32.265c0,11.767-6.435,22.599-16.755,28.239
		l-78.76,42.955c-22.74,12.403-36.899,36.246-36.899,62.164v37.411h345.732L344.279,370.761z"/>
	<path style="fill:#51C7AE;" d="M63.383,377.114l78.76-42.955c10.328-5.632,16.755-16.463,16.755-28.231v-32.274
		c0,0-23.111-27.639-31.929-66.057c-7.309-4.723-12.209-12.915-12.209-22.219v-35.31c0-7.768,3.452-14.716,8.828-19.571v-51.05
		c0,0-9.516-72.669,83.862-78.963C203.23,0.203,198.869,0,194.208,0C86.626,0,97.104,79.448,97.104,79.448v51.05
		c-5.376,4.855-8.828,11.802-8.828,19.571v35.31c0,9.304,4.899,17.496,12.209,22.219c8.819,38.418,31.929,66.057,31.929,66.057
		v32.274c0,11.767-6.426,22.599-16.755,28.231L36.9,377.114c-22.74,12.412-36.899,36.246-36.899,62.164v37.411h26.483v-37.411
		C26.484,413.361,40.643,389.526,63.383,377.114"/>
	<path style="fill:#1D8B74;" d="M335.452,377.119l-89.176-42.964c-10.319-5.632-16.755-16.463-16.755-28.231V273.66
		c0,0,23.111-27.648,31.929-66.066c7.318-4.723,12.209-12.906,12.209-22.21v-35.31c0-7.777-3.452-14.716-8.828-19.571v-51.05
		c0,0,9.516-72.669-83.862-78.972c4.228-0.282,8.589-0.477,13.241-0.477c107.582,0,97.103,79.448,97.103,79.448v51.05
		c5.376,4.855,8.828,11.802,8.828,19.571v35.31c0,9.304-4.89,17.487-12.209,22.219c-8.819,38.409-31.929,66.057-31.929,66.057
		v32.265c0,11.767,6.435,22.599,16.755,28.231l89.176,42.964c22.749,12.403,36.899,36.246,36.899,62.164v37.411h-26.483v-37.411
		C372.351,413.365,358.2,389.522,335.452,377.119"/>
	<path style="fill:#ECF0F1;" d="M512.004,395.886l-12.747-2.454c-18.918-3.637-27.586-25.732-16.199-41.269l8.007-10.911
		l-17.293-17.284l-10.743,7.274c-15.943,10.805-37.703,1.315-40.633-17.726l-2.066-13.374h-24.444l-3.169,16.463
		c-3.549,18.494-24.867,27.33-40.466,16.755l-13.877-9.393l-17.293,17.284l8.007,10.911c11.388,15.537,2.719,37.632-16.199,41.269
		l-12.747,2.454v24.444l13.374,2.057c19.041,2.931,28.531,24.691,17.726,40.642l-7.274,10.743l17.284,17.284l10.92-7.998
		c15.519-11.396,37.623-2.719,41.26,16.199l2.454,12.747h24.444l1.448-9.41c2.993-19.456,25.565-28.804,41.445-17.161l7.671,5.623
		l17.284-17.284l-7.274-10.743c-10.805-15.951-1.315-37.711,17.726-40.642l13.374-2.057V395.886z"/>
	<path style="fill:#BDC3C7;" d="M441.383,406.072c0,19.5-15.81,35.31-35.31,35.31c-19.5,0-35.31-15.81-35.31-35.31
		c0-19.5,15.81-35.31,35.31-35.31C425.573,370.761,441.383,386.571,441.383,406.072"/>
</g>
<g>
</g>
<g>
</g>
<g>
</g>
<g>
</g>
<g>
</g>
<g>
</g>
<g>
</g>
<g>
</g>
<g>
</g>
<g>
</g>
<g>
</g>
<g>
</g>
<g>
</g>
<g>
</g>
<g>
</g>
</svg>
