<?xml version="1.0" encoding="iso-8859-1"?>
<!-- Generator: Adobe Illustrator 19.0.0, SVG Export Plug-In . SVG Version: 6.00 Build 0)  -->
<svg version="1.1" id="Capa_1" xmlns="http://www.w3.org/2000/svg" xmlns:xlink="http://www.w3.org/1999/xlink" x="0px" y="0px"
	 viewBox="0 0 512 512" style="enable-background:new 0 0 512 512;" xml:space="preserve">
<g>
	<g transform="translate(1 1)">
		<g>
			<path style="fill:#424242;" d="M127,459.8h42.667v34.133c0,4.713-3.82,8.533-8.533,8.533h-25.6c-4.713,0-8.533-3.821-8.533-8.533
				V459.8z"/>
			<path style="fill:#424242;" d="M340.333,459.8H383v34.133c0,4.713-3.821,8.533-8.533,8.533h-25.6
				c-4.713,0-8.533-3.821-8.533-8.533V459.8z"/>
		</g>
		<path style="fill:#00838F;" d="M391.533,16.067v460.8H118.467v-460.8c0.014-4.707,3.826-8.519,8.533-8.533h256
			C387.707,7.547,391.519,11.36,391.533,16.067z"/>
		<path style="fill:#00BCD4;" d="M365.933,16.067v460.8H118.467v-460.8c0.014-4.707,3.826-8.519,8.533-8.533h230.4
			C362.107,7.547,365.919,11.36,365.933,16.067z"/>
		<rect x="118.467" y="212.333" style="fill:#37474F;" width="273.067" height="34.133"/>
		<rect x="118.467" y="212.333" style="fill:#607D8B;" width="247.467" height="34.133"/>
		<g>
			<path style="fill:#37474F;" d="M374.467,67.267h17.067V152.6h-17.067c-9.426,0-17.067-7.641-17.067-17.067v-51.2
				C357.4,74.908,365.041,67.267,374.467,67.267z"/>
			<path style="fill:#37474F;" d="M374.467,314.733h17.067v85.333h-17.067c-9.426,0-17.067-7.641-17.067-17.067v-51.2
				C357.4,322.374,365.041,314.733,374.467,314.733z"/>
		</g>
	</g>
	<path d="M119.467,486.4v8.533c0.009,9.422,7.645,17.057,17.067,17.067h25.6c9.422-0.009,17.057-7.645,17.067-17.067V486.4h153.6
		v8.533c0.009,9.422,7.645,17.057,17.067,17.067h25.6c9.422-0.009,17.057-7.645,17.067-17.067V486.4c4.713,0,8.533-3.82,8.533-8.533
		v-460.8C401.057,7.645,393.422,0.009,384,0H128c-9.422,0.009-17.057,7.645-17.067,17.067v460.8
		C110.933,482.58,114.754,486.4,119.467,486.4z M384,145.067h-8.533c-4.71-0.006-8.527-3.823-8.533-8.533v-51.2
		c0.006-4.71,3.823-8.527,8.533-8.533H384V145.067z M384,392.533h-8.533c-4.71-0.006-8.527-3.823-8.533-8.533v-51.2
		c0.006-4.71,3.823-8.527,8.533-8.533H384V392.533z M375.467,307.2c-14.132,0.015-25.585,11.468-25.6,25.6V384
		c0.015,14.132,11.468,25.585,25.6,25.6H384v59.733H128V256h256v51.2H375.467z M384,238.933H128v-17.067h256V238.933z
		 M162.146,494.933h-25.612V486.4h25.604L162.146,494.933z M375.479,494.933h-25.612V486.4h25.604L375.479,494.933z M384,17.067
		v42.667h-8.533c-14.132,0.015-25.585,11.468-25.6,25.6v51.2c0.015,14.132,11.468,25.585,25.6,25.6H384V204.8H128V17.067H384z"/>
</g>
<g>
</g>
<g>
</g>
<g>
</g>
<g>
</g>
<g>
</g>
<g>
</g>
<g>
</g>
<g>
</g>
<g>
</g>
<g>
</g>
<g>
</g>
<g>
</g>
<g>
</g>
<g>
</g>
<g>
</g>
</svg>
