<svg height="512pt" viewBox="-18 0 512 512.0011" width="512pt" xmlns="http://www.w3.org/2000/svg"><path d="m344.277344 308.964844v-291.308594c-.03125-9.738281-7.917969-17.6289062-17.65625-17.65625h-238.34375l-88.277344 88.277344v406.066406c.175781 9.878906 8.289062 17.765625 18.167969 17.65625h294.769531zm0 0" fill="#d1d4d1"/><path d="m88.277344 0-88.277344 88.277344h70.621094c9.75 0 17.65625-7.90625 17.65625-17.65625zm0 0" fill="#a5a5a4"/><path d="m300.136719 176.550781h-256c-4.875 0-8.824219-3.953125-8.824219-8.828125s3.949219-8.824218 8.824219-8.824218h256c4.878906 0 8.828125 3.949218 8.828125 8.824218s-3.949219 8.828125-8.828125 8.828125zm0 0" fill="#67b9cc"/><path d="m282.484375 61.792969h-105.933594c-4.875 0-8.824219-3.953125-8.824219-8.828125s3.949219-8.828125 8.824219-8.828125h105.933594c4.875 0 8.828125 3.953125 8.828125 8.828125s-3.953125 8.828125-8.828125 8.828125zm0 0" fill="#2c2f38"/><path d="m282.484375 97.101562h-105.933594c-4.875 0-8.824219-3.949218-8.824219-8.824218s3.949219-8.828125 8.824219-8.828125h105.933594c4.875 0 8.828125 3.953125 8.828125 8.828125s-3.953125 8.824218-8.828125 8.824218zm0 0" fill="#2c2f38"/><path d="m282.484375 132.414062h-105.933594c-4.875 0-8.824219-3.953124-8.824219-8.828124s3.949219-8.828126 8.824219-8.828126h105.933594c4.875 0 8.828125 3.953126 8.828125 8.828126s-3.953125 8.828124-8.828125 8.828124zm0 0" fill="#2c2f38"/><path d="m44.136719 485.515625c-4.875 0-8.824219-3.949219-8.824219-8.824219v-97.105468c0-4.875 3.949219-8.828126 8.824219-8.828126h194.207031c4.878906 0 8.828125 3.953126 8.828125 8.828126s-3.949219 8.828124-8.828125 8.828124h-185.378906v88.277344c0 4.875-3.949219 8.824219-8.828125 8.824219zm0 0" fill="#67b9cc"/><g fill="#2c2f38"><path d="m52.964844 211.863281c0 4.875-3.949219 8.828125-8.828125 8.828125-4.875 0-8.824219-3.953125-8.824219-8.828125s3.949219-8.828125 8.824219-8.828125c4.878906 0 8.828125 3.953125 8.828125 8.828125zm0 0"/><path d="m238.34375 220.691406h-158.894531c-4.875 0-8.828125-3.953125-8.828125-8.828125s3.953125-8.828125 8.828125-8.828125h158.894531c4.878906 0 8.828125 3.953125 8.828125 8.828125s-3.949219 8.828125-8.828125 8.828125zm0 0"/><path d="m52.964844 247.171875c0 4.875-3.949219 8.828125-8.828125 8.828125-4.875 0-8.824219-3.953125-8.824219-8.828125s3.949219-8.828125 8.824219-8.828125c4.878906 0 8.828125 3.953125 8.828125 8.828125zm0 0"/><path d="m238.34375 256h-158.894531c-4.875 0-8.828125-3.953125-8.828125-8.828125s3.953125-8.828125 8.828125-8.828125h158.894531c4.878906 0 8.828125 3.953125 8.828125 8.828125s-3.949219 8.828125-8.828125 8.828125zm0 0"/><path d="m52.964844 282.484375c0 4.875-3.949219 8.824219-8.828125 8.824219-4.875 0-8.824219-3.949219-8.824219-8.824219 0-4.878906 3.949219-8.828125 8.824219-8.828125 4.878906 0 8.828125 3.949219 8.828125 8.828125zm0 0"/><path d="m238.34375 291.308594h-158.894531c-4.875 0-8.828125-3.949219-8.828125-8.824219 0-4.878906 3.953125-8.828125 8.828125-8.828125h158.894531c4.878906 0 8.828125 3.949219 8.828125 8.828125 0 4.875-3.949219 8.824219-8.828125 8.824219zm0 0"/><path d="m52.964844 317.792969c0 4.875-3.949219 8.828125-8.828125 8.828125-4.875 0-8.824219-3.953125-8.824219-8.828125s3.949219-8.828125 8.824219-8.828125c4.878906 0 8.828125 3.953125 8.828125 8.828125zm0 0"/><path d="m238.34375 326.621094h-158.894531c-4.875 0-8.828125-3.953125-8.828125-8.828125s3.953125-8.828125 8.828125-8.828125h158.894531c4.878906 0 8.828125 3.953125 8.828125 8.828125s-3.949219 8.828125-8.828125 8.828125zm0 0"/></g><path d="m476.691406 348.25c.027344 17.984375-7.121094 35.238281-19.863281 47.933594l-47.933594 48.019531-95.867187-95.867187 47.933594-48.019532c19.390624-19.386718 48.546874-25.183594 73.875-14.695312 25.332031 10.492187 41.851562 35.210937 41.855468 62.628906zm0 0" fill="#c03a2b"/><path d="m408.894531 444.203125-48.023437 47.933594c-26.472656 26.472656-69.394532 26.472656-95.867188 0-26.472656-26.472657-26.472656-69.394531 0-95.867188l48.023438-47.933593zm0 0" fill="#e6e7e8"/><path d="m141.242188 476.691406c-4.875 0-8.828126-3.953125-8.828126-8.828125v-52.964843c0-4.878907 3.953126-8.828126 8.828126-8.828126s8.828124 3.949219 8.828124 8.828126v52.964843c0 4.875-3.953124 8.828125-8.828124 8.828125zm0 0" fill="#c03a2b"/><path d="m167.726562 450.207031h-52.96875c-4.875 0-8.828124-3.953125-8.828124-8.828125s3.953124-8.828125 8.828124-8.828125h52.96875c4.875 0 8.824219 3.953125 8.824219 8.828125s-3.949219 8.828125-8.824219 8.828125zm0 0" fill="#c03a2b"/></svg>