<?xml version="1.0" encoding="iso-8859-1"?>
<!-- Generator: Adobe Illustrator 19.0.0, SVG Export Plug-In . SVG Version: 6.00 Build 0)  -->
<svg version="1.1" id="Layer_1" xmlns="http://www.w3.org/2000/svg" xmlns:xlink="http://www.w3.org/1999/xlink" x="0px" y="0px"
	 viewBox="0 0 512 512" style="enable-background:new 0 0 512 512;" xml:space="preserve">
<path style="fill:#D0E8F9;" d="M324.267,305.493V76.8c0-37.547-30.72-68.267-68.267-68.267c-37.547,0-68.267,30.72-68.267,68.267
	v228.693c-25.6,19.627-42.667,51.2-42.667,87.04c0,61.44,49.493,110.933,110.933,110.933s110.933-49.493,110.933-110.933
	C366.933,356.693,349.867,325.12,324.267,305.493"/>
<g>
	<path style="fill:#0096E6;" d="M256,469.333c-42.667,0-76.8-34.133-76.8-76.8c0-23.893,11.093-46.08,29.867-60.587l12.8-10.24
		V281.6c0-18.773,15.36-34.133,34.133-34.133c18.773,0,34.133,15.36,34.133,34.133v40.107l12.8,10.24
		c18.773,14.507,29.867,36.693,29.867,60.587C332.8,435.2,298.667,469.333,256,469.333"/>
	<path style="fill:#0096E6;" d="M256,17.067c-33.28,0-59.733,26.453-59.733,59.733v228.693c0,2.56-0.853,5.12-3.413,6.827
		c-24.747,19.627-39.253,48.64-39.253,80.213c0,56.32,46.08,102.4,102.4,102.4s102.4-46.08,102.4-102.4
		c0-31.573-14.507-60.587-39.253-80.213c-1.707-1.707-3.413-4.267-3.413-6.827V76.8C315.733,43.52,289.28,17.067,256,17.067
		 M256,512c-65.707,0-119.467-53.76-119.467-119.467c0-35.84,15.36-68.267,42.667-91.307V76.8C179.2,34.133,213.333,0,256,0
		s76.8,34.133,76.8,76.8v224.427c27.307,23.04,42.667,55.467,42.667,91.307C375.467,458.24,321.707,512,256,512"/>
</g>
<path style="fill:#FFFFFF;" d="M256,256c-14.507,0-25.6,11.093-25.6,25.6v40.107c0,2.56-0.853,5.12-3.413,6.827l-12.8,10.24
	c-17.067,12.8-26.453,32.427-26.453,53.76c0,37.547,30.72,68.267,68.267,68.267c37.547,0,68.267-30.72,68.267-68.267
	c0-21.333-9.387-40.96-26.453-53.76l-12.8-10.24c-2.56-1.707-3.413-4.267-3.413-6.827V281.6C281.6,267.093,270.507,256,256,256
	 M256,477.867c-46.933,0-85.333-38.4-85.333-85.333c0-26.453,11.947-51.2,32.427-67.413l10.24-7.68V281.6
	c0-23.893,18.773-42.667,42.667-42.667s42.667,18.773,42.667,42.667v35.84l9.387,7.68c21.333,16.213,33.28,40.96,33.28,67.413
	C341.333,439.467,302.933,477.867,256,477.867"/>
<g>
</g>
<g>
</g>
<g>
</g>
<g>
</g>
<g>
</g>
<g>
</g>
<g>
</g>
<g>
</g>
<g>
</g>
<g>
</g>
<g>
</g>
<g>
</g>
<g>
</g>
<g>
</g>
<g>
</g>
</svg>
